<svg width="23" height="26" viewBox="0 0 23 26" fill="none" xmlns="http://www.w3.org/2000/svg">
<g filter="url(#filter0_d_5_320)">
<path d="M10.8018 0.528336C12.5125 0.373158 14.2713 0.864731 15.6621 1.87697L15.668 1.88185C17.657 3.28659 18.7616 5.84514 18.4463 8.26076V8.26759C18.3556 9.03551 18.1216 9.7898 17.7773 10.4932H17.7764L17.7725 10.502C17.5284 11.0285 17.1911 11.5087 16.8154 12.0137C16.4484 12.5071 16.0347 13.0369 15.6982 13.6133L15.6963 13.6162C15.3092 14.2913 14.9842 15.0642 14.9072 15.9043C14.8731 16.1093 14.8782 16.3147 14.8779 16.4395C14.8776 16.5616 14.8717 16.6402 14.8584 16.7002L14.8398 16.6992H14.8184C12.6258 16.7069 10.4323 16.7048 8.23828 16.6992H8.22656L8.21484 16.7002C8.19303 16.7011 8.17104 16.6993 8.15137 16.6963C8.14975 16.6961 8.148 16.6946 8.14648 16.6944C8.12972 16.6199 8.12538 16.5246 8.12695 16.375C8.12856 16.2228 8.13566 15.9831 8.08496 15.7412H8.08594C7.85692 14.0908 6.74166 12.787 5.91602 11.669L5.91113 11.6631L5.74316 11.4317C4.92452 10.2599 4.46697 8.8366 4.50195 7.41701V7.40236C4.49199 5.58911 5.25222 3.78083 6.55469 2.51955H6.55566L6.56445 2.51076C7.67288 1.37924 9.21069 0.690326 10.8008 0.527359L10.8018 0.528336Z" fill="#FED100" stroke="#323233"/>
</g>
<path d="M8.05335 18.5451C10.3239 18.5105 12.598 18.5385 14.87 18.5324C15.252 18.5319 15.4183 18.9628 15.3693 19.2887C15.4076 19.6238 15.2867 20.096 14.8746 20.1001C12.6276 20.1052 10.38 20.1042 8.13291 20.1006C7.74174 20.1052 7.57191 19.6717 7.60557 19.3387C7.56324 19.0174 7.68615 18.6007 8.05335 18.5451Z" fill="#306FDC"/>
<path d="M8.00549 21.0561C10.275 21.0138 12.5496 21.0505 14.8211 21.0398C15.4913 21.0525 15.5469 22.0465 15.1455 22.4214C14.9879 22.5632 14.7722 22.6213 14.5636 22.6106C12.4711 22.606 10.378 22.6167 8.28548 22.604C7.51334 22.6228 7.32311 21.3065 8.00549 21.0561Z" fill="#306FDC"/>
<path d="M9.48828 23.5252C10.8117 23.5252 12.1352 23.5206 13.4592 23.5262C13.0512 24.3055 12.1928 24.8833 11.2932 24.7915C10.5129 24.7405 9.84477 24.1994 9.48828 23.5252Z" fill="#306FDC"/>
<defs>
<filter id="filter0_d_5_320" x="0" y="1.52588e-05" width="23" height="25.2044" filterUnits="userSpaceOnUse" color-interpolation-filters="sRGB">
<feFlood flood-opacity="0" result="BackgroundImageFix"/>
<feColorMatrix in="SourceAlpha" type="matrix" values="0 0 0 0 0 0 0 0 0 0 0 0 0 0 0 0 0 0 127 0" result="hardAlpha"/>
<feOffset dy="4"/>
<feGaussianBlur stdDeviation="2"/>
<feComposite in2="hardAlpha" operator="out"/>
<feColorMatrix type="matrix" values="0 0 0 0 0 0 0 0 0 0 0 0 0 0 0 0 0 0 0.25 0"/>
<feBlend mode="normal" in2="BackgroundImageFix" result="effect1_dropShadow_5_320"/>
<feBlend mode="normal" in="SourceGraphic" in2="effect1_dropShadow_5_320" result="shape"/>
</filter>
</defs>
</svg>
